<svg version="1.1" xmlns="http://www.w3.org/2000/svg" xmlns:xlink="http://www.w3.org/1999/xlink" width="512.000000pt" height="512.000000pt" viewBox="0,0,256,256"><g fill="#ff0000" fill-rule="nonzero" stroke="none" stroke-width="1" stroke-linecap="butt" stroke-linejoin="miter" stroke-miterlimit="10" stroke-dasharray="" stroke-dashoffset="0" font-family="none" font-weight="none" font-size="none" text-anchor="none" style="mix-blend-mode: normal"><g transform="translate(0,0.05285) scale(0.5,0.5)"><g transform="translate(0,512) scale(0.1,-0.1)"><path d="M2465,5114c-11,-2 -44,-9 -73,-15c-75,-15 -166,-54 -247,-106c-54,-35 -283,-257 -993,-966c-508,-507 -947,-951 -976,-987c-70,-87 -100,-140 -138,-252c-30,-87 -32,-102 -32,-228c0,-126 2,-141 32,-228c38,-112 68,-165 138,-252c29,-36 468,-480 976,-987c965,-963 980,-977 1124,-1036c100,-40 163,-52 284,-52c123,0 188,12 285,53c148,63 157,71 1123,1035c508,507 947,951 976,987c70,87 100,140 138,252c30,87 32,102 32,228c0,126 -2,141 -32,228c-38,112 -68,165 -138,252c-29,36 -468,480 -976,987c-960,958 -983,979 -1119,1034c-30,12 -76,28 -104,36c-50,14 -243,26 -280,17zM3830,3590c70,-36 80,-70 80,-280c0,-210 -10,-244 -80,-280c-38,-19 -58,-20 -505,-20h-465v-990c0,-973 0,-991 -20,-1030c-36,-70 -70,-80 -280,-80c-210,0 -244,10 -280,80c-20,39 -20,57 -20,1030v990h-465c-447,0 -467,1 -505,20c-70,36 -80,70 -80,280c0,208 10,244 78,279c36,20 62,20 1270,21c1216,0 1233,0 1272,-20z"></path></g></g></g></svg>